<?xml version="1.0" standalone="no"?>
<!DOCTYPE svg PUBLIC "-//W3C//DTD SVG 20010904//EN"
 "http://www.w3.org/TR/2001/REC-SVG-20010904/DTD/svg10.dtd">
<svg version="1.0" xmlns="http://www.w3.org/2000/svg"
 width="481.000000pt" height="481.000000pt" viewBox="0 0 481.000000 481.000000"
 preserveAspectRatio="xMidYMid meet">
<metadata>
Created by potrace 1.14, written by Peter Selinger 2001-2017
</metadata>
<g transform="translate(0.000000,481.000000) scale(0.100000,-0.100000)"
fill="#000000" stroke="none">
<path d="M1790 4337 c-52 -20 -73 -34 -65 -47 1 -3 6 -45 10 -95 3 -49 8 -106
10 -125 2 -19 7 -78 11 -130 3 -52 8 -108 9 -125 2 -16 6 -75 10 -130 4 -55 9
-103 12 -107 11 -19 -10 -25 -54 -17 -27 5 -61 12 -78 15 -16 2 -79 13 -140
24 -60 11 -121 21 -135 24 -14 2 -43 7 -65 11 -22 4 -49 9 -60 11 -11 2 -32 6
-47 10 -24 5 -32 -1 -72 -56 -25 -34 -43 -66 -40 -71 11 -19 384 -575 391
-584 4 -6 48 -71 97 -145 50 -74 95 -141 100 -149 7 -9 7 -13 1 -9 -14 7 -129
61 -190 88 -77 34 -371 168 -455 207 -41 20 -95 44 -120 55 -25 11 -60 26 -78
35 -21 10 -36 12 -45 6 -6 -5 -33 -26 -58 -46 l-46 -37 39 -147 c55 -211 54
-203 32 -204 -11 0 -27 -2 -36 -4 -9 -2 -57 -6 -105 -10 -181 -15 -307 -26
-343 -30 -14 -2 -32 -3 -41 -4 -19 -1 -73 -115 -65 -136 7 -18 179 -249 189
-253 4 -2 7 -7 7 -12 0 -6 118 -171 134 -187 1 -1 32 21 70 48 74 55 74 54 20
117 -55 66 -191 258 -186 263 6 6 44 10 222 25 30 2 78 7 105 9 28 3 84 8 125
11 41 3 86 8 100 9 14 2 28 4 31 4 4 1 -6 52 -23 114 -48 183 -59 230 -55 233
2 2 31 -10 65 -26 34 -17 64 -30 67 -30 2 0 41 -17 87 -39 46 -21 108 -50 138
-64 30 -14 93 -43 140 -65 47 -22 108 -50 135 -62 28 -12 91 -42 141 -65 50
-24 120 -55 154 -71 l62 -28 53 59 52 60 -46 70 c-249 372 -388 579 -458 683
-46 67 -83 127 -83 132 0 6 -4 10 -9 10 -7 0 -51 72 -51 84 0 2 28 -2 63 -9
34 -7 80 -16 102 -19 22 -3 119 -19 215 -37 240 -43 225 -44 223 11 -1 43 -9
144 -18 240 -3 25 -7 74 -10 110 -6 77 -11 131 -20 223 -4 44 -3 67 4 67 6 0
11 -3 11 -7 0 -5 15 -24 33 -43 31 -34 116 -133 168 -194 13 -16 33 -38 44
-50 12 -12 54 -61 94 -111 41 -49 77 -91 80 -93 4 -1 36 48 71 110 35 62 74
129 86 148 11 19 45 77 75 128 29 50 56 92 59 92 5 0 24 -80 46 -189 3 -12 12
-53 20 -90 18 -74 20 -82 37 -166 12 -53 16 -60 37 -60 42 -1 140 27 140 39 0
7 -9 54 -21 106 -11 52 -23 106 -25 119 -3 14 -7 28 -9 31 -2 4 -7 22 -10 41
-8 45 -96 433 -100 437 -1 1 -15 4 -31 6 -16 3 -49 7 -74 10 l-45 6 -32 -56
c-18 -30 -33 -60 -33 -65 0 -5 -4 -9 -10 -9 -5 0 -10 -5 -10 -11 0 -9 -78
-145 -146 -256 -8 -13 -13 -25 -12 -27 2 -2 -5 -13 -16 -24 -18 -21 -18 -20
-88 61 -39 45 -79 93 -91 107 -20 25 -122 144 -142 166 -5 6 -19 22 -30 36
-89 107 -119 138 -133 137 -9 0 -42 -10 -72 -22z"/>
<path d="M3423 3796 c-57 -112 -103 -208 -103 -214 0 -6 -3 -12 -7 -14 -5 -1
-86 -160 -181 -352 l-174 -350 -32 60 c-152 283 -359 416 -568 365 -94 -23
-198 -118 -233 -212 -19 -54 -25 -164 -12 -219 38 -149 205 -296 431 -379 l77
-27 -458 -343 -458 -342 -8 68 c-23 208 -131 332 -274 316 -38 -4 -110 -40
-130 -65 -39 -48 -53 -89 -50 -155 4 -85 39 -160 114 -242 49 -55 51 -59 30
-63 -12 -3 -165 -38 -340 -78 -175 -40 -320 -70 -323 -67 -3 2 1 21 10 40 19
48 16 145 -7 180 -37 57 -101 75 -164 47 -72 -32 -98 -129 -63 -236 7 -20 10
-37 8 -39 -2 -2 -28 2 -58 10 -30 8 -66 16 -80 19 -14 3 -63 15 -110 26 -108
27 -173 41 -175 38 -10 -18 -44 -112 -41 -115 3 -3 67 -26 143 -53 76 -26 145
-50 153 -53 8 -3 40 -13 70 -23 30 -10 59 -21 63 -25 5 -4 -1 -29 -13 -55 -12
-27 -23 -53 -24 -59 -1 -5 -12 -32 -25 -60 -37 -82 -83 -186 -86 -195 -1 -3
-6 -16 -12 -30 -45 -107 -43 -96 -20 -117 12 -11 35 -29 52 -40 l29 -21 64
117 c35 64 82 151 105 194 61 114 64 118 73 119 4 0 26 -33 48 -74 143 -261
192 -348 197 -348 3 0 23 13 43 29 21 16 42 31 48 33 11 4 -17 81 -78 216 -13
29 -24 58 -24 66 0 7 -3 15 -6 19 -10 10 -75 160 -80 185 -4 18 0 22 23 23 16
0 35 2 43 3 8 2 53 7 100 10 47 4 99 9 115 11 17 2 73 6 125 10 52 4 102 9
110 10 8 2 56 6 105 10 l91 7 2 -179 c4 -218 11 -674 12 -689 0 -7 15 -14 33
-17 65 -10 103 -18 128 -26 33 -11 44 -3 45 34 2 32 15 209 19 260 2 17 6 77
9 135 4 58 9 116 11 130 2 14 7 72 10 130 4 58 8 106 10 108 2 2 148 -105 325
-238 294 -220 323 -240 335 -223 7 10 29 50 50 89 l38 71 -54 50 c-54 50 -138
126 -240 218 -155 140 -237 214 -282 256 l-50 46 93 52 c51 29 116 65 145 81
29 16 93 51 143 79 49 28 94 51 100 51 6 0 12 3 14 8 2 4 62 39 133 78 72 40
148 82 170 94 22 13 60 34 85 48 25 13 69 38 98 54 29 17 55 29 57 27 2 -2 77
-155 168 -339 90 -184 232 -473 316 -642 83 -169 151 -312 151 -318 0 -5 9
-10 20 -10 19 0 322 70 328 75 3 3 -51 149 -77 210 -5 11 -23 58 -41 105 -18
47 -36 94 -41 105 -4 11 -26 67 -48 125 -22 58 -94 245 -160 415 -65 171 -118
311 -118 311 1 1 64 -11 140 -27 76 -15 150 -30 165 -33 15 -3 128 -26 252
-51 124 -25 236 -48 250 -51 14 -3 59 -12 100 -20 41 -9 86 -18 100 -20 14 -3
57 -11 95 -19 39 -8 84 -16 100 -19 42 -8 65 -13 97 -21 34 -9 35 -7 42 115 3
52 8 123 12 157 l6 62 -129 39 c-70 22 -202 63 -293 90 -91 28 -219 67 -285
87 -195 60 -248 76 -295 90 -25 7 -99 29 -165 50 -66 20 -127 38 -135 40 -39
9 -95 34 -93 41 3 10 14 41 173 479 56 154 119 330 141 390 21 61 48 135 59
165 79 210 88 250 57 250 -7 0 -68 18 -137 40 -68 22 -129 40 -135 40 -5 0
-56 -92 -112 -204z"/>
</g>
</svg>
